<svg width="128" height="125" viewBox="0 0 128 125" fill="none" xmlns="http://www.w3.org/2000/svg">
<path d="M116.482 32.8813C112.851 26.3146 109.083 22.3385 108.574 21.6969C97.1975 8.86845 80.5943 0.78064 62.0997 0.78064C47.8422 0.78064 34.7164 5.58336 24.241 13.6534C9.49337 25.0148 5.86279 41.9379 5.86279 61.9665C5.86279 96.2634 28.5773 119.244 62.8743 119.244C86.8956 119.244 107.757 111.201 118.067 89.8212C118.066 89.8219 118.065 89.8224 118.064 89.8232C126.613 72.1011 126.354 50.768 116.482 32.8813Z" fill="#B930D6"/>
<path d="M122.545 77.1249C111.928 85.2833 98.7231 89.9783 84.704 89.9783C50.407 89.9783 22.6039 62.1752 22.6039 27.8782C22.6039 22.9859 23.1724 18.2252 24.2437 13.6569C9.49604 25.0182 -0.000488281 42.8519 -0.000488281 62.8807C-0.000488281 97.1777 27.8026 124.981 62.0996 124.981C86.1209 124.981 107.756 111.201 118.067 89.8214C118.066 89.8221 118.065 89.8226 118.064 89.8234C120.028 85.7527 121.521 81.4907 122.545 77.1249Z" fill="#8D1BA5"/>
<path d="M110.625 32.9498H98.3561C97.189 32.9498 96.2427 32.0035 96.2427 30.8364V28.0752C96.2427 26.9081 97.189 25.9618 98.3561 25.9618H110.625C111.792 25.9618 112.738 26.9081 112.738 28.0752V30.8364C112.738 32.0035 111.792 32.9498 110.625 32.9498Z" fill="#05CDFF"/>
<path d="M36.2845 32.9498H24.0158C22.8487 32.9498 21.9023 32.0035 21.9023 30.8364V28.0752C21.9023 26.9081 22.8487 25.9618 24.0158 25.9618H36.2845C37.4516 25.9618 38.3979 26.9081 38.3979 28.0752V30.8364C38.3979 32.0035 37.4518 32.9498 36.2845 32.9498Z" fill="#05CDFF"/>
<path d="M126.789 67.184C126.726 66.9782 126.661 66.7726 126.594 66.5671L116.639 36.1531C115.294 32.0431 111.459 29.2632 107.135 29.2632H99.7295C96.7058 29.2632 93.9529 31.0056 92.6589 33.7384H41.4518C40.1577 31.0056 37.4049 29.2632 34.3811 29.2632H31.9798L13.2666 74.9906L33.6756 92.8696C33.6897 92.8654 33.6939 92.8644 33.7082 92.8601L39.7519 71.5939H39.8843C39.6938 71.0907 39.5751 70.5519 39.5501 69.9921C39.4364 67.4561 41.7897 65.2963 44.2459 65.2963H105.432C105.456 65.2963 105.479 65.2996 105.502 65.2998C105.516 65.2991 105.529 65.2968 105.542 65.2963C108.078 65.1827 110.238 67.536 110.238 69.9921V94.0578C122.366 91.8622 130.532 79.4834 126.789 67.184Z" fill="#453D49"/>
<path d="M33.3642 94.0703L33.958 91.9809C27.5756 87.6784 23.2475 81.0994 21.6713 73.8007C20.7733 69.6416 23.9513 65.7367 28.2055 65.6673C28.2605 65.6663 28.3156 65.6651 28.3709 65.6636C35.051 65.4711 40.546 60.0925 40.8709 53.4175C41.0837 49.0453 39.118 45.1226 35.9648 42.6394C31.9544 39.481 30.3985 34.1172 31.9795 29.2634H26.7467C22.4169 29.2634 18.579 32.0496 17.2379 36.1663L7.33427 66.5673C7.26793 66.7696 7.20384 66.9724 7.142 67.1752C3.06029 80.5729 13.2811 94.0703 27.2867 94.0703H33.3642Z" fill="#2B282D"/>
<path d="M117.163 91.0711L112.617 75.0773C111.251 70.2675 112.32 65.0417 115.623 61.2877C117.737 58.8846 118.971 55.6881 118.821 52.2025C118.534 45.5467 113.101 40.1417 106.444 39.8865C99.0913 39.6049 93.0415 45.4824 93.0415 52.7728C93.0415 52.8174 93.0418 52.8617 93.0423 52.9063C93.1011 58.7074 88.4754 63.4648 82.674 63.4648H51.7773L52.5827 71.5934H94.1764L102.022 99.1995C103.258 102.531 107.034 104.146 110.298 102.739C114.573 100.895 118.2 98.1458 121.041 94.8051C119.315 94.2363 117.848 92.9182 117.163 91.0711Z" fill="#2B282D"/>
<path d="M34.5861 89.4608L34.5428 89.6136C33.3061 92.9452 29.5298 94.56 26.2668 93.1528C13.944 87.8386 6.99356 75.0084 8.77806 62.1351L7.33429 66.5671C2.59016 81.0245 9.65829 96.7132 23.6303 102.739C26.8936 104.146 30.6699 102.531 31.9064 99.1997L34.673 89.4646C34.644 89.4636 34.6149 89.4623 34.5861 89.4608Z" fill="#2B282D"/>
<path d="M99.2761 89.4608L99.3194 89.6136C100.556 92.9452 104.332 94.56 107.595 93.1528C119.918 87.8386 126.868 75.0084 125.084 62.1351L126.528 66.5671C131.272 81.0245 124.204 96.7132 110.232 102.739C106.968 104.146 103.192 102.531 101.956 99.1997C101.956 99.1997 99.2471 89.4623 99.2761 89.4608Z" fill="#2B282D"/>
<path d="M44.4532 57.8937C41.6656 57.8937 39.1192 58.9266 37.176 60.6308L44.4532 79.9771C50.5515 79.9771 55.4949 75.0334 55.4949 68.9354C55.4949 62.8373 50.5515 57.8937 44.4532 57.8937Z" fill="#F73C9A"/>
<path d="M47.17 77.3306C50.1657 76.2 52.2701 73.2546 52.1402 69.8344C51.992 65.9284 48.8664 62.7107 44.9657 62.4578C43.2798 62.3484 41.7013 62.7828 40.3883 63.6027C39.4279 64.202 38.2843 63.1092 38.8318 62.1183C38.8491 62.0873 38.8664 62.0562 38.8839 62.0252C39.5085 60.9199 38.1309 59.7943 37.1765 60.6312C34.7824 62.7304 33.3039 65.8483 33.4178 69.3084C33.6085 75.1055 38.3684 79.8268 44.1668 79.9738C45.3109 80.0028 46.4167 79.8576 47.4597 79.563C48.0675 79.3912 48.0019 78.5035 47.3735 78.4396C47.355 78.4376 47.3365 78.4359 47.318 78.4339C46.7259 78.3703 46.613 77.5409 47.17 77.3306Z" fill="#E0248B"/>
<path d="M44.4533 76.6281C48.7018 76.6281 52.146 73.1839 52.146 68.9353C52.146 64.6867 48.7018 61.2426 44.4533 61.2426C40.2047 61.2426 36.7605 64.6867 36.7605 68.9353C36.7605 73.1839 40.2047 76.6281 44.4533 76.6281Z" fill="#2B282D"/>
<path d="M44.4532 74.9906C47.7974 74.9906 50.5084 72.2795 50.5084 68.9353C50.5084 65.5911 47.7974 62.8801 44.4532 62.8801C41.109 62.8801 38.3979 65.5911 38.3979 68.9353C38.3979 72.2795 41.109 74.9906 44.4532 74.9906Z" fill="#594D5E"/>
<path d="M44.4533 72.7124C46.5393 72.7124 48.2303 71.0214 48.2303 68.9354C48.2303 66.8494 46.5393 65.1583 44.4533 65.1583C42.3673 65.1583 40.6763 66.8494 40.6763 68.9354C40.6763 71.0214 42.3673 72.7124 44.4533 72.7124Z" fill="#453D49"/>
<path d="M88.5499 57.8937C85.7622 57.8937 83.2159 58.9266 81.2727 60.6308L88.5499 79.9771C94.6482 79.9771 99.5916 75.0334 99.5916 68.9354C99.5916 62.8373 94.6479 57.8937 88.5499 57.8937Z" fill="#F73C9A"/>
<path d="M91.2664 77.3306C94.2619 76.2 96.3666 73.2546 96.2366 69.8344C96.0884 65.9284 92.9628 62.7107 89.0621 62.4578C87.3762 62.3484 85.7978 62.7828 84.4847 63.6027C83.5244 64.202 82.3808 63.1092 82.9283 62.1183C82.9455 62.0873 82.9628 62.0562 82.9803 62.0252C83.605 60.9199 82.2273 59.7943 81.273 60.6312C78.8789 62.7304 77.4003 65.8483 77.5142 69.3084C77.705 75.1055 82.4649 79.8268 88.2632 79.9738C89.4073 80.0028 90.5131 79.8576 91.5561 79.563C92.1639 79.3912 92.0983 78.5035 91.47 78.4396C91.4514 78.4376 91.4329 78.4359 91.4144 78.4339C90.8226 78.3703 90.7094 77.5409 91.2664 77.3306Z" fill="#E0248B"/>
<path d="M88.5499 76.6281C92.7985 76.6281 96.2427 73.1839 96.2427 68.9353C96.2427 64.6867 92.7985 61.2426 88.5499 61.2426C84.3013 61.2426 80.8572 64.6867 80.8572 68.9353C80.8572 73.1839 84.3013 76.6281 88.5499 76.6281Z" fill="#2B282D"/>
<path d="M88.5498 74.9906C91.894 74.9906 94.6051 72.2795 94.6051 68.9353C94.6051 65.5911 91.894 62.8801 88.5498 62.8801C85.2056 62.8801 82.4946 65.5911 82.4946 68.9353C82.4946 72.2795 85.2056 74.9906 88.5498 74.9906Z" fill="#594D5E"/>
<path d="M88.55 72.7124C90.636 72.7124 92.327 71.0214 92.327 68.9354C92.327 66.8494 90.636 65.1583 88.55 65.1583C86.464 65.1583 84.7729 66.8494 84.7729 68.9354C84.7729 71.0214 86.464 72.7124 88.55 72.7124Z" fill="#453D49"/>
<path d="M27.9886 62.9385C35.1107 62.9385 40.8843 57.1649 40.8843 50.0428C40.8843 42.9206 35.1107 37.147 27.9886 37.147C20.8664 37.147 15.0928 42.9206 15.0928 50.0428C15.0928 57.1649 20.8664 62.9385 27.9886 62.9385Z" fill="#2B282D"/>
<path d="M105.935 62.9385C113.057 62.9385 118.831 57.1649 118.831 50.0428C118.831 42.9206 113.057 37.147 105.935 37.147C98.8132 37.147 93.0396 42.9206 93.0396 50.0428C93.0396 57.1649 98.8132 62.9385 105.935 62.9385Z" fill="#2B282D"/>
<path d="M82.9565 56.9549H51.3193C49.7608 56.9549 48.4976 55.6917 48.4976 54.1332V36.9808C48.4976 35.4223 49.7608 34.1591 51.3193 34.1591H82.9565C84.5149 34.1591 85.7782 35.4223 85.7782 36.9808V54.1332C85.7782 55.6917 84.5149 56.9549 82.9565 56.9549Z" fill="#453D49"/>
<path d="M43.3862 46.7444C42.1369 46.7444 41.1243 45.7317 41.1243 44.4825V41.1704C41.1243 39.9211 42.1369 38.9084 43.3862 38.9084C44.6354 38.9084 45.6481 39.9211 45.6481 41.1704V44.4825C45.6481 45.7315 44.6354 46.7444 43.3862 46.7444Z" fill="#453D49"/>
<path d="M90.5722 46.327C89.323 46.327 88.3103 45.3144 88.3103 44.0651V40.7532C88.3103 39.504 89.323 38.4913 90.5722 38.4913C91.8215 38.4913 92.8341 39.504 92.8341 40.7532V44.0651C92.8341 45.3144 91.8215 46.327 90.5722 46.327Z" fill="#453D49"/>
<path d="M82.9565 54.5583H51.3193C49.7608 54.5583 48.4976 53.2951 48.4976 51.7366V34.5841C48.4976 33.0257 49.7608 31.7625 51.3193 31.7625H82.9565C84.5149 31.7625 85.7782 33.0257 85.7782 34.5841V51.7366C85.7782 53.2951 84.5149 54.5583 82.9565 54.5583Z" fill="#2B282D"/>
<path d="M54.1965 37.6263H80.0174" stroke="#5AB4FF" stroke-width="5.75204" stroke-miterlimit="10" stroke-linecap="round"/>
<path d="M43.3862 44.3478C42.1369 44.3478 41.1243 43.3351 41.1243 42.0859V38.7738C41.1243 37.5245 42.1369 36.5118 43.3862 36.5118C44.6354 36.5118 45.6481 37.5245 45.6481 38.7738V42.0859C45.6481 43.3349 44.6354 44.3478 43.3862 44.3478Z" fill="#2B282D"/>
<path d="M90.5722 43.9304C89.323 43.9304 88.3103 42.9178 88.3103 41.6685V38.3564C88.3103 37.1071 89.323 36.0945 90.5722 36.0945C91.8215 36.0945 92.8341 37.1071 92.8341 38.3564V41.6685C92.8341 42.9178 91.8215 43.9304 90.5722 43.9304Z" fill="#2B282D"/>
<path d="M105.935 47.4641C107.78 47.4641 109.275 45.9689 109.275 44.1245C109.275 42.28 107.78 40.7848 105.935 40.7848C104.091 40.7848 102.596 42.28 102.596 44.1245C102.596 45.9689 104.091 47.4641 105.935 47.4641Z" fill="#FFC305"/>
<path d="M105.935 59.3009C107.78 59.3009 109.275 57.8057 109.275 55.9613C109.275 54.1168 107.78 52.6216 105.935 52.6216C104.091 52.6216 102.596 54.1168 102.596 55.9613C102.596 57.8057 104.091 59.3009 105.935 59.3009Z" fill="#BE5AB9"/>
<path d="M111.854 53.3823C113.698 53.3823 115.193 51.8871 115.193 50.0427C115.193 48.1982 113.698 46.703 111.854 46.703C110.009 46.703 108.514 48.1982 108.514 50.0427C108.514 51.8871 110.009 53.3823 111.854 53.3823Z" fill="#F73C9A"/>
<path d="M100.017 53.3823C101.862 53.3823 103.357 51.8871 103.357 50.0427C103.357 48.1982 101.862 46.703 100.017 46.703C98.1727 46.703 96.6775 48.1982 96.6775 50.0427C96.6775 51.8871 98.1727 53.3823 100.017 53.3823Z" fill="#5AB4FF"/>
<path d="M27.9605 47.4641C29.805 47.4641 31.3002 45.9689 31.3002 44.1245C31.3002 42.28 29.805 40.7848 27.9605 40.7848C26.1161 40.7848 24.6208 42.28 24.6208 44.1245C24.6208 45.9689 26.1161 47.4641 27.9605 47.4641Z" fill="#FFC305"/>
<path d="M27.9605 59.3009C29.805 59.3009 31.3002 57.8057 31.3002 55.9613C31.3002 54.1168 29.805 52.6216 27.9605 52.6216C26.1161 52.6216 24.6208 54.1168 24.6208 55.9613C24.6208 57.8057 26.1161 59.3009 27.9605 59.3009Z" fill="#BE5AB9"/>
<path d="M33.879 53.3823C35.7234 53.3823 37.2186 51.8871 37.2186 50.0427C37.2186 48.1982 35.7234 46.703 33.879 46.703C32.0345 46.703 30.5393 48.1982 30.5393 50.0427C30.5393 51.8871 32.0345 53.3823 33.879 53.3823Z" fill="#F73C9A"/>
<path d="M22.0421 53.3823C23.8865 53.3823 25.3817 51.8871 25.3817 50.0427C25.3817 48.1982 23.8865 46.703 22.0421 46.703C20.1976 46.703 18.7024 48.1982 18.7024 50.0427C18.7024 51.8871 20.1976 53.3823 22.0421 53.3823Z" fill="#5AB4FF"/>
</svg>
