<svg width="128" height="128" viewBox="0 0 128 128" fill="none" xmlns="http://www.w3.org/2000/svg">
<g clip-path="url(#clip0_59_44)">
<path d="M64 0C28.8477 0 0 28.8477 0 64C0 93.9971 21.0488 121.246 49 128V106.826C46.2305 107.433 43.6816 107.45 40.8623 106.619C37.0801 105.503 34.0068 102.983 31.7256 99.1416C30.2715 96.6885 27.6943 94.0283 25.0059 94.2236L24.3467 86.7529C30.1602 86.2549 35.1895 90.2949 38.1748 95.3105C39.501 97.541 41.0273 98.8486 42.9863 99.4268C44.8799 99.9844 46.9131 99.7168 49.2822 98.8799C49.877 94.1367 52.0498 92.3613 53.6914 89.8613V89.8574C37.0215 87.3711 30.3779 78.5273 27.7412 71.5469C24.2471 62.2783 26.1221 50.6992 32.3008 43.3818C32.4209 43.2393 32.6377 42.8662 32.5537 42.6055C29.7207 34.0479 33.1729 26.9687 33.2998 26.2178C36.5693 27.1846 37.1006 25.2451 47.502 31.5645L49.2998 32.6445C50.0518 33.0928 49.8154 32.8369 50.5674 32.7803C54.9102 31.6006 59.4883 30.9492 63.999 30.8906C68.5439 30.9492 73.0928 31.6006 77.6152 32.8281L78.1973 32.8867C78.1465 32.8789 78.3555 32.8496 78.7061 32.6406C91.6992 24.7705 91.2324 27.3428 94.7168 26.21C94.8428 26.9619 98.249 34.1562 95.4463 42.6055C95.0684 43.7695 106.711 54.4307 100.258 71.5439C97.6211 78.5273 90.9785 87.3711 74.3086 89.8574V89.8613C76.4453 93.1182 79.0127 94.8506 78.999 101.569V128C106.951 121.246 127.999 93.9971 127.999 64C128 28.8477 99.1523 0 64 0Z" fill="white"/>
</g>
<defs>
<clipPath id="clip0_59_44">
<rect width="128" height="128" fill="white"/>
</clipPath>
</defs>
</svg>
